# xmcd CD database file
#
# Track frame offsets:
#	150
#	18395
#	39465
#	53725
#	73017
#	88402
#	103327
#	117962
#	138362
#	163295
#	183920
#	215600
#
# Disc length: 4440 seconds
#
# Revision: 10
# Processed by: cddbd v1.5.2PL0 Copyright (c) Steve Scherf et al.
# Submitted via: CDex 1.70beta2
#
DISCID=b111560c
DTITLE=レミオロメン - 朝顔
DYEAR=2003
DGENRE=JPop
TTITLE0=まめ電球
TTITLE1=雨上がり
TTITLE2=日めくりカレンダー
TTITLE3=ビールとプリン
TTITLE4=朝顔
TTITLE5=昭和
TTITLE6=すきま風
TTITLE7=フェスタ
TTITLE8=電話
TTITLE9=タクシードライバー
TTITLE10=追いかけっこ
TTITLE11=CCCD DATA
EXTD=YEAR: 2003
EXTT0=
EXTT1=
EXTT2=
EXTT3=
EXTT4=
EXTT5=
EXTT6=
EXTT7=
EXTT8=
EXTT9=
EXTT10=
EXTT11=
PLAYORDER=
